<svg width="64" height="64" viewBox="0 0 64 64" fill="none" xmlns="http://www.w3.org/2000/svg">
<g filter="url(#filter0_d_21_56)">
<rect x="4" y="4" width="52" height="52" rx="26" fill="white"/>
<rect x="3.5" y="3.5" width="53" height="53" rx="26.5" stroke="#EBEBEB"/>
<path d="M46.6693 26.6706H45.3V26.6H30V33.4H39.6076C38.2059 37.3584 34.4396 40.2 30 40.2C24.3671 40.2 19.8 35.6329 19.8 30C19.8 24.3671 24.3671 19.8 30 19.8C32.6002 19.8 34.9657 20.7809 36.7669 22.3832L41.5753 17.5747C38.5391 14.7451 34.4778 13 30 13C20.6118 13 13 20.6118 13 30C13 39.3883 20.6118 47 30 47C39.3883 47 47 39.3883 47 30C47 28.8602 46.8827 27.7475 46.6693 26.6706Z" fill="#FFC107"/>
<path d="M14.9601 22.0873L20.5454 26.1835C22.0567 22.4418 25.7168 19.8 30 19.8C32.6001 19.8 34.9657 20.7809 36.7668 22.3831L41.5753 17.5747C38.5391 14.745 34.4778 13 30 13C23.4703 13 17.8076 16.6864 14.9601 22.0873Z" fill="#FF3D00"/>
<path d="M30 47C34.3911 47 38.381 45.3196 41.3977 42.5868L36.1362 38.1345C34.3723 39.4767 32.2164 40.2024 30 40.2C25.5783 40.2 21.8238 37.3806 20.4094 33.4459L14.8657 37.7172C17.6792 43.2226 23.3929 47 30 47Z" fill="#4CAF50"/>
<path d="M46.6693 26.6705H45.3V26.6H30V33.4H39.6076C38.9371 35.2839 37.7294 36.9302 36.1336 38.1353L36.1361 38.1336L41.3977 42.5859C41.0254 42.9242 47 38.5 47 30C47 28.8601 46.8827 27.7475 46.6693 26.6705Z" fill="#1976D2"/>
</g>
<defs>
<filter id="filter0_d_21_56" x="0" y="0" width="64" height="64" filterUnits="userSpaceOnUse" color-interpolation-filters="sRGB">
<feFlood flood-opacity="0" result="BackgroundImageFix"/>
<feColorMatrix in="SourceAlpha" type="matrix" values="0 0 0 0 0 0 0 0 0 0 0 0 0 0 0 0 0 0 127 0" result="hardAlpha"/>
<feOffset dx="2" dy="2"/>
<feGaussianBlur stdDeviation="2.5"/>
<feComposite in2="hardAlpha" operator="out"/>
<feColorMatrix type="matrix" values="0 0 0 0 0 0 0 0 0 0 0 0 0 0 0 0 0 0 0.1 0"/>
<feBlend mode="normal" in2="BackgroundImageFix" result="effect1_dropShadow_21_56"/>
<feBlend mode="normal" in="SourceGraphic" in2="effect1_dropShadow_21_56" result="shape"/>
</filter>
</defs>
</svg>
