<svg width="52" height="52" viewBox="0 0 52 52" fill="none" xmlns="http://www.w3.org/2000/svg">
<rect width="52" height="52" rx="26" fill="black"/>
<path d="M26.3866 15.1673C26.2842 15.1687 26.1825 15.1499 26.0875 15.1118C25.9924 15.0738 25.9058 15.0174 25.8326 14.9457C25.7594 14.8741 25.7011 14.7887 25.661 14.6945C25.621 14.6003 25.5999 14.4991 25.5991 14.3967C25.5991 11.4149 28.0685 9.00007 31.1091 9.00007C31.2115 8.99868 31.3131 9.01755 31.4082 9.05558C31.5033 9.09361 31.5899 9.15005 31.6631 9.22167C31.7362 9.29329 31.7945 9.37866 31.8346 9.47289C31.8747 9.56711 31.8957 9.66833 31.8966 9.77072C31.8966 12.7525 29.4292 15.1673 26.3866 15.1673Z" fill="white"/>
<path d="M26.3866 15.1673C26.2842 15.1687 26.1825 15.1499 26.0875 15.1118C25.9924 15.0738 25.9058 15.0174 25.8326 14.9457C25.7594 14.8741 25.7011 14.7887 25.6611 14.6945C25.621 14.6003 25.5999 14.4991 25.5991 14.3967C25.5991 11.4149 28.0685 9.00007 31.1091 9.00007C31.2115 8.99868 31.3131 9.01755 31.4082 9.05558C31.5033 9.09361 31.5899 9.15005 31.6631 9.22167C31.7363 9.29329 31.7946 9.37866 31.8346 9.47289C31.8747 9.56711 31.8957 9.66833 31.8966 9.77072C31.8966 12.7525 29.4292 15.1673 26.3866 15.1673ZM37.8832 31.4013C38.1877 31.6239 38.2864 32.0312 38.1142 32.363C35.3424 37.7932 33.1313 40.4978 31.1112 40.4978C30.1705 40.4978 29.2466 40.1997 28.3457 39.6201C27.6987 39.2061 26.9501 38.9785 26.1822 38.9622C25.4143 38.9459 24.6567 39.1416 23.9927 39.5277C22.9008 40.1682 21.8614 40.4978 20.8744 40.4978C17.9032 40.4978 13 31.5378 13 26.622C13 21.3724 15.8117 17.3701 20.087 17.3701C22.0987 17.3687 23.8345 17.662 25.2946 18.2499C25.912 18.4977 26.6112 18.4809 27.2139 18.1974C28.3982 17.6389 29.9605 17.3701 31.8966 17.3701C34.2631 17.3701 36.3273 18.525 38.0407 20.7613C38.1033 20.8418 38.1489 20.934 38.1749 21.0325C38.2009 21.131 38.2067 21.2338 38.192 21.3346C38.1773 21.4354 38.1424 21.5322 38.0893 21.6191C38.0363 21.7061 37.9662 21.7815 37.8832 21.8407C35.9703 23.2476 35.0484 24.8246 35.0484 26.622C35.0484 28.4174 35.9703 29.9965 37.8832 31.4013Z" fill="white"/>
<path d="M37.8832 31.4013C38.1877 31.6239 38.2864 32.0313 38.1142 32.3631C35.3424 37.7933 33.1313 40.4979 31.1112 40.4979C30.1705 40.4979 29.2466 40.1997 28.3457 39.6202C27.6987 39.2062 26.9501 38.9785 26.1822 38.9622C25.4143 38.9459 24.6567 39.1416 23.9927 39.5278C22.9008 40.1682 21.8614 40.4979 20.8744 40.4979C17.9032 40.4979 13 31.5378 13 26.6221C13 21.3724 15.8117 17.3701 20.087 17.3701C22.0987 17.3687 23.8345 17.662 25.2946 18.25C25.912 18.4977 26.6112 18.4809 27.2139 18.1975C28.3982 17.6389 29.9605 17.3701 31.8966 17.3701C34.2631 17.3701 36.3273 18.525 38.0407 20.7614C38.1033 20.8418 38.1489 20.934 38.1749 21.0325C38.2009 21.1311 38.2067 21.2338 38.192 21.3346C38.1773 21.4354 38.1424 21.5322 38.0893 21.6192C38.0363 21.7062 37.9662 21.7815 37.8832 21.8407C35.9703 23.2476 35.0484 24.8246 35.0484 26.6221C35.0484 28.4174 35.9703 29.9965 37.8832 31.4013Z" fill="white"/>
</svg>
